<svg width="16" height="16" viewBox="0 0 16 16" fill="none" xmlns="http://www.w3.org/2000/svg">
<path fill-rule="evenodd" clip-rule="evenodd" d="M11.9836 0.54202L5.91835 0.49226C5.15536 0.486731 4.42831 0.79635 3.90306 1.34648L2.70329 2.62642C2.23333 3.11849 1.97624 3.75985 1.97071 4.43714L1.94307 8.523C1.93201 10.0103 3.14837 11.2211 4.64947 11.2322L6.20862 11.246L5.21618 13.9303C4.20163 13.4188 3.13455 13.7561 3.0295 13.792C1.79379 14.2067 1.32106 15.3153 1.25195 15.4839C3.00738 15.4839 4.76281 15.4784 6.521 15.4756C6.97161 14.0713 7.41945 12.6669 7.87006 11.2626L9.04771 11.2736C8.69663 12.5398 8.34278 13.8059 7.99169 15.072C7.95022 15.2047 7.90876 15.3374 7.87006 15.4701L13.399 15.4922C13.2414 15.271 12.2766 13.9469 10.5322 13.7561C10.3359 13.734 10.148 13.734 9.96828 13.7395C10.159 12.9212 10.347 12.103 10.5378 11.2847L11.9172 11.2957C13.4238 11.3096 14.6485 10.1181 14.6596 8.63081L14.6955 3.25671C14.7066 1.76944 13.4957 0.558607 11.9891 0.547549L11.9836 0.54202Z" fill="#3F6DFB"/>
<path d="M8.40537 3.74792C7.63409 4.14047 7.12267 4.94493 7.09502 5.83785C7.06185 6.79435 7.5788 7.6845 8.40814 8.10746C8.3722 8.23739 8.14552 9.00867 7.49034 9.263C6.68035 9.58092 5.85655 8.81516 5.68792 8.65759C4.3278 7.39147 4.20893 4.47773 5.50823 3.16462C5.66304 3.00981 6.41497 2.24406 7.27748 2.49562C8.05429 2.72231 8.36391 3.61523 8.40814 3.73963L8.40537 3.74792Z" fill="white"/>
<path d="M11.9913 3.49792C11.22 3.89047 10.7086 4.69493 10.681 5.58785C10.6478 6.54435 11.1647 7.4345 11.9941 7.85746C11.9581 7.98739 11.7315 8.75867 11.0763 9.013C10.2663 9.33092 9.44249 8.56516 9.27385 8.40759C7.91374 7.14147 7.79487 4.22773 9.09416 2.91462C9.24897 2.75981 10.0009 1.99406 10.8634 2.24562C11.6402 2.47231 11.9498 3.36523 11.9941 3.48963L11.9913 3.49792Z" fill="white"/>
</svg>
