<svg width="535" height="139" viewBox="0 0 535 139" fill="none" xmlns="http://www.w3.org/2000/svg">
<path fill-rule="evenodd" clip-rule="evenodd" d="M94.8715 34.9807L66.7774 34.7504C63.2429 34.7247 59.8752 36.1595 57.4423 38.7084L51.8849 44.6385C49.7081 46.9184 48.5172 49.8902 48.4915 53.0282L48.3637 71.9593C48.3123 78.8505 53.9468 84.4606 60.8997 84.512L68.1218 84.5759L63.5247 97.013C58.8254 94.6434 53.8825 96.2061 53.3961 96.3725C47.672 98.2939 45.4823 103.43 45.1624 104.211C53.2937 104.211 61.4246 104.186 69.5688 104.173C71.656 97.6663 73.7303 91.1597 75.8175 84.6527L81.2724 84.7042C79.6462 90.5703 78.0072 96.4368 76.381 102.303C76.1889 102.918 75.9968 103.533 75.8175 104.147L101.428 104.25C100.698 103.225 96.2288 97.0901 88.1489 96.2061C87.2398 96.1036 86.3692 96.1036 85.5368 96.1293C86.4202 92.338 87.2908 88.5465 88.1746 84.7553L94.5644 84.8063C101.543 84.8706 107.216 79.3499 107.267 72.459L107.433 47.5589C107.485 40.6679 101.876 35.0579 94.8972 35.0065L94.8715 34.9807Z" fill="#3F6DFB"/>
<path d="M78.2973 49.7714C74.7246 51.5902 72.3557 55.3178 72.2278 59.4548C72.0739 63.8868 74.4686 68.011 78.3101 69.9709C78.1437 70.5727 77.0935 74.1464 74.0586 75.3248C70.307 76.7978 66.4912 73.2499 65.7099 72.5198C59.4097 66.6533 58.8591 53.1529 64.8775 47.0689C65.5945 46.3516 69.0776 42.8037 73.0727 43.9692C76.6711 45.0197 78.1052 49.1567 78.3101 49.7332L78.2973 49.7714Z" fill="white"/>
<path d="M94.9073 48.6583C91.3349 50.4772 88.966 54.2044 88.8378 58.3418C88.6843 62.7734 91.0786 66.8979 94.9201 68.8578C94.7537 69.4597 93.7039 73.0334 90.669 74.2118C86.917 75.6848 83.1012 72.1368 82.3202 71.4067C76.0201 65.5402 75.4694 52.0399 81.4878 45.9558C82.2049 45.2386 85.6879 41.6906 89.6831 42.8561C93.2811 43.9066 94.7155 48.0436 94.9201 48.6201L94.9073 48.6583Z" fill="white"/>
<path d="M470.161 97.2993V46.6953H479.693V97.2993H470.161Z" fill="#6B7280"/>
<path d="M470.161 97.2993V46.6953H479.693V97.2993H470.161Z" fill="#3F6DFB"/>
<path d="M416.272 97.2913L436.143 46.614H445.235L465.103 97.2913H454.986L450.88 85.9235H430.498L426.392 97.2913H416.272ZM433.357 77.8563H448.021L440.687 57.5415L433.357 77.8563Z" fill="#6B7280"/>
<path d="M416.272 97.2913L436.143 46.614H445.235L465.103 97.2913H454.986L450.88 85.9235H430.498L426.392 97.2913H416.272ZM433.357 77.8563H448.021L440.687 57.5415L433.357 77.8563Z" fill="#3F6DFB"/>
<path d="M383.821 98.093C373.704 98.093 365.127 91.5659 365.127 79.9785C365.127 68.6841 373.263 61.0568 383.967 61.0568C394.378 61.0568 401.052 68.2441 401.052 77.9981C401.052 79.4649 400.906 82.1785 400.833 82.9118H375.17C376.195 88.339 380.302 90.8327 385.287 90.8327C389.834 90.8327 393.718 88.9256 395.698 86.8722L399.513 92.0792C397.533 94.2795 391.519 98.093 383.821 98.093ZM391.741 76.3114C391.669 72.6445 389.393 68.0975 383.456 68.0975C378.029 68.0975 375.685 72.2042 374.952 76.3114H391.741Z" fill="#6B7280"/>
<path d="M383.821 98.093C373.704 98.093 365.127 91.5659 365.127 79.9785C365.127 68.6841 373.263 61.0568 383.967 61.0568C394.378 61.0568 401.052 68.2441 401.052 77.9981C401.052 79.4649 400.906 82.1785 400.833 82.9118H375.17C376.195 88.339 380.302 90.8327 385.287 90.8327C389.834 90.8327 393.718 88.9256 395.698 86.8722L399.513 92.0792C397.533 94.2795 391.519 98.093 383.821 98.093ZM391.741 76.3114C391.669 72.6445 389.393 68.0975 383.456 68.0975C378.029 68.0975 375.685 72.2042 374.952 76.3114H391.741Z" fill="#3F6DFB"/>
<path d="M348.924 97.2993V46.6953H358.308V97.2993H348.924Z" fill="#6B7280"/>
<path d="M348.924 97.2993V46.6953H358.308V97.2993H348.924Z" fill="#3F6DFB"/>
<path d="M324.708 98.1062C319.795 98.1062 315.836 96.2728 313.05 92.239V97.2993H304.031V46.6953H313.416V62.2432C313.416 64.1499 313.343 66.1303 313.27 67.1568C316.569 62.6831 320.821 61.0696 325.367 61.0696C335.705 61.0696 342.084 69.2105 342.084 79.6248C342.084 89.7454 335.485 98.1062 324.708 98.1062ZM322.948 90.4789C329.033 90.4789 332.406 85.345 332.406 79.4781C332.406 73.4643 328.74 68.6969 322.654 68.6969C317.009 68.6969 313.123 72.9507 313.123 79.4781C313.123 85.345 316.936 90.4789 322.948 90.4789Z" fill="#6B7280"/>
<path d="M324.708 98.1062C319.795 98.1062 315.836 96.2728 313.05 92.239V97.2993H304.031V46.6953H313.416V62.2432C313.416 64.1499 313.343 66.1303 313.27 67.1568C316.569 62.6831 320.821 61.0696 325.367 61.0696C335.705 61.0696 342.084 69.2105 342.084 79.6248C342.084 89.7454 335.485 98.1062 324.708 98.1062ZM322.948 90.4789C329.033 90.4789 332.406 85.345 332.406 79.4781C332.406 73.4643 328.74 68.6969 322.654 68.6969C317.009 68.6969 313.123 72.9507 313.123 79.4781C313.123 85.345 316.936 90.4789 322.948 90.4789Z" fill="#3F6DFB"/>
<path d="M241.811 97.2864V61.8637H251.049V67.5106C253.469 62.5969 257.281 61.0568 261.901 61.0568C267.033 61.0568 270.039 63.1102 271.725 67.8042C274.218 63.4771 278.251 61.0568 283.383 61.0568C292.694 61.0568 295.261 67.6572 295.261 75.7981V97.2864H285.876V77.3382C285.876 73.0111 284.923 68.6108 280.303 68.6108C275.611 68.6108 273.191 72.7912 273.191 78.8783V97.2864H263.88V77.2649C263.88 72.4246 262.634 68.6841 258.161 68.6841C253.322 68.6841 251.196 73.3778 251.196 78.9517V97.2864H241.811Z" fill="#6B7280"/>
<path d="M241.811 97.2864V61.8637H251.049V67.5106C253.469 62.5969 257.281 61.0568 261.901 61.0568C267.033 61.0568 270.039 63.1102 271.725 67.8042C274.218 63.4771 278.251 61.0568 283.383 61.0568C292.694 61.0568 295.261 67.6572 295.261 75.7981V97.2864H285.876V77.3382C285.876 73.0111 284.923 68.6108 280.303 68.6108C275.611 68.6108 273.191 72.7912 273.191 78.8783V97.2864H263.88V77.2649C263.88 72.4246 262.634 68.6841 258.161 68.6841C253.322 68.6841 251.196 73.3778 251.196 78.9517V97.2864H241.811Z" fill="#3F6DFB"/>
<path d="M212.962 98.101C202.771 98.101 200.204 91.4269 200.204 82.9198V61.8713H209.589V80.9394C209.589 86.22 210.542 90.4737 215.968 90.4737C221.76 90.4737 223.739 85.5597 223.739 79.6195V61.8713H233.125V97.2941H223.886V91.6469C221.76 96.2672 217.581 98.101 212.962 98.101Z" fill="#6B7280"/>
<path d="M212.962 98.101C202.771 98.101 200.204 91.4269 200.204 82.9198V61.8713H209.589V80.9394C209.589 86.22 210.542 90.4737 215.968 90.4737C221.76 90.4737 223.739 85.5597 223.739 79.6195V61.8713H233.125V97.2941H223.886V91.6469C221.76 96.2672 217.581 98.101 212.962 98.101Z" fill="#3F6DFB"/>
<path d="M135.161 97.2993L139.414 46.6953H151.951L164.049 82.5584L176.146 46.6953H188.684L192.936 97.2993H183.478L180.472 55.936L181.792 56.0827L167.568 97.5193H160.53L146.306 56.0827L147.626 55.936L144.62 97.2993H135.161Z" fill="#6B7280"/>
<path d="M135.161 97.2993L139.414 46.6953H151.951L164.049 82.5584L176.146 46.6953H188.684L192.936 97.2993H183.478L180.472 55.936L181.792 56.0827L167.568 97.5193H160.53L146.306 56.0827L147.626 55.936L144.62 97.2993H135.161Z" fill="#3F6DFB"/>
</svg>
