<svg width="136" height="22" viewBox="0 0 136 22" fill="none" xmlns="http://www.w3.org/2000/svg">
<g clip-path="url(#clip0_14442_71594)">
<path fill-rule="evenodd" clip-rule="evenodd" d="M15.5581 0.197245L6.76508 0.125106C5.65894 0.11709 4.6049 0.565958 3.84343 1.3635L2.10407 3.21909C1.42275 3.93247 1.05003 4.86227 1.04202 5.84417L1.00194 11.7676C0.985907 13.9238 2.74932 15.6792 4.92552 15.6952L7.1859 15.7153L5.74711 19.6068C4.27627 18.8653 2.72928 19.3543 2.57698 19.4064C0.785519 20.0076 0.100194 21.6147 0 21.8591C2.54492 21.8591 5.08984 21.8511 7.63877 21.8471C8.29203 19.8112 8.94129 17.7752 9.59455 15.7393L11.3019 15.7553C10.7929 17.5909 10.2799 19.4264 9.77089 21.262C9.71078 21.4544 9.65066 21.6467 9.59455 21.8391L17.6101 21.8712C17.3816 21.5505 15.9829 19.6308 13.454 19.3543C13.1695 19.3222 12.8969 19.3222 12.6364 19.3302C12.913 18.144 13.1855 16.9577 13.462 15.7714L15.4619 15.7874C17.6461 15.8074 19.4216 14.0801 19.4376 11.9239L19.4897 4.13286C19.5057 1.97669 17.7503 0.221292 15.5661 0.205261L15.5581 0.197245Z" fill="#3F6DFB"/>
<path d="M10.3718 4.82595C9.25362 5.39505 8.51218 6.5613 8.4721 7.85581C8.42401 9.24249 9.17346 10.533 10.3758 11.1462C10.3237 11.3345 9.99505 12.4527 9.04521 12.8214C7.87094 13.2823 6.67663 12.1722 6.43216 11.9437C4.46035 10.1082 4.28801 5.88399 6.17166 3.98031C6.39609 3.75588 7.4862 2.64573 8.73662 3.01043C9.86279 3.33907 10.3117 4.63357 10.3758 4.81392L10.3718 4.82595Z" fill="white"/>
<path d="M15.571 4.4822C14.4528 5.0513 13.7114 6.21755 13.6713 7.51205C13.6232 8.89874 14.3727 10.1892 15.575 10.8024C15.5229 10.9908 15.1943 12.1089 14.2444 12.4777C13.0702 12.9385 11.8759 11.8284 11.6314 11.6C9.65957 9.76441 9.48723 5.54024 11.3709 3.63656C11.5953 3.41213 12.6854 2.30198 13.9358 2.66668C15.062 2.99532 15.5109 4.28982 15.575 4.47017L15.571 4.4822Z" fill="white"/>
<path d="M133.018 19.7009V3.86719H136.001V19.7009H133.018Z" fill="#6B7280"/>
<path d="M133.018 19.7009V3.86719H136.001V19.7009H133.018Z" fill="#3F6DFB"/>
<path d="M116.152 19.6926L122.371 3.83594H125.217L131.435 19.6926H128.269L126.984 16.1358H120.604L119.319 19.6926H116.152ZM121.499 13.6115H126.089L123.794 7.2551L121.499 13.6115Z" fill="#6B7280"/>
<path d="M116.152 19.6926L122.371 3.83594H125.217L131.435 19.6926H128.269L126.984 16.1358H120.604L119.319 19.6926H116.152ZM121.499 13.6115H126.089L123.794 7.2551L121.499 13.6115Z" fill="#3F6DFB"/>
<path d="M105.994 19.9478C102.827 19.9478 100.143 17.9055 100.143 14.2798C100.143 10.7459 102.69 8.35938 106.04 8.35938C109.299 8.35938 111.387 10.6082 111.387 13.6602C111.387 14.1192 111.341 14.9682 111.318 15.1977H103.286C103.608 16.8958 104.893 17.676 106.453 17.676C107.876 17.676 109.092 17.0794 109.712 16.4369L110.905 18.0661C110.285 18.7546 108.404 19.9478 105.994 19.9478ZM108.472 13.1324C108.45 11.9851 107.738 10.5623 105.879 10.5623C104.181 10.5623 103.447 11.8474 103.218 13.1324H108.472Z" fill="#6B7280"/>
<path d="M105.994 19.9478C102.827 19.9478 100.143 17.9055 100.143 14.2798C100.143 10.7459 102.69 8.35938 106.04 8.35938C109.299 8.35938 111.387 10.6082 111.387 13.6602C111.387 14.1192 111.341 14.9682 111.318 15.1977H103.286C103.608 16.8958 104.893 17.676 106.453 17.676C107.876 17.676 109.092 17.0794 109.712 16.4369L110.905 18.0661C110.285 18.7546 108.404 19.9478 105.994 19.9478ZM108.472 13.1324C108.45 11.9851 107.738 10.5623 105.879 10.5623C104.181 10.5623 103.447 11.8474 103.218 13.1324H108.472Z" fill="#3F6DFB"/>
<path d="M95.0723 19.7009V3.86719H98.0095V19.7009H95.0723Z" fill="#6B7280"/>
<path d="M95.0723 19.7009V3.86719H98.0095V19.7009H95.0723Z" fill="#3F6DFB"/>
<path d="M87.4927 19.9533C85.9552 19.9533 84.716 19.3796 83.844 18.1175V19.7009H81.0215V3.86719H83.9588V8.73204C83.9588 9.32868 83.9358 9.94826 83.9129 10.2695C84.9455 8.86973 86.2764 8.36488 87.6992 8.36488C90.9348 8.36488 92.9312 10.912 92.9312 14.1706C92.9312 17.3373 90.8659 19.9533 87.4927 19.9533ZM86.9419 17.5668C88.8466 17.5668 89.9021 15.9605 89.9021 14.1247C89.9021 12.243 88.7548 10.7514 86.8501 10.7514C85.0832 10.7514 83.867 12.0824 83.867 14.1247C83.867 15.9605 85.0602 17.5668 86.9419 17.5668Z" fill="#6B7280"/>
<path d="M87.4927 19.9533C85.9552 19.9533 84.716 19.3796 83.844 18.1175V19.7009H81.0215V3.86719H83.9588V8.73204C83.9588 9.32868 83.9358 9.94826 83.9129 10.2695C84.9455 8.86973 86.2764 8.36488 87.6992 8.36488C90.9348 8.36488 92.9312 10.912 92.9312 14.1706C92.9312 17.3373 90.8659 19.9533 87.4927 19.9533ZM86.9419 17.5668C88.8466 17.5668 89.9021 15.9605 89.9021 14.1247C89.9021 12.243 88.7548 10.7514 86.8501 10.7514C85.0832 10.7514 83.867 12.0824 83.867 14.1247C83.867 15.9605 85.0602 17.5668 86.9419 17.5668Z" fill="#3F6DFB"/>
<path d="M61.5488 19.6954V8.6118H64.4402V10.3787C65.1975 8.84127 66.3907 8.35938 67.8364 8.35938C69.4427 8.35938 70.3836 9.0019 70.9114 10.4705C71.6916 9.11664 72.9537 8.35938 74.56 8.35938C77.4743 8.35938 78.2775 10.4246 78.2775 12.9718V19.6954H75.3402V13.4537C75.3402 12.0998 75.0419 10.723 73.5962 10.723C72.1276 10.723 71.3703 12.031 71.3703 13.9356V19.6954H68.456V13.4308C68.456 11.9162 68.0659 10.7459 66.6661 10.7459C65.1516 10.7459 64.4861 12.2145 64.4861 13.9585V19.6954H61.5488Z" fill="#6B7280"/>
<path d="M61.5488 19.6954V8.6118H64.4402V10.3787C65.1975 8.84127 66.3907 8.35938 67.8364 8.35938C69.4427 8.35938 70.3836 9.0019 70.9114 10.4705C71.6916 9.11664 72.9537 8.35938 74.56 8.35938C77.4743 8.35938 78.2775 10.4246 78.2775 12.9718V19.6954H75.3402V13.4537C75.3402 12.0998 75.0419 10.723 73.5962 10.723C72.1276 10.723 71.3703 12.031 71.3703 13.9356V19.6954H68.456V13.4308C68.456 11.9162 68.0659 10.7459 66.6661 10.7459C65.1516 10.7459 64.4861 12.2145 64.4861 13.9585V19.6954H61.5488Z" fill="#3F6DFB"/>
<path d="M52.5182 19.9454C49.3286 19.9454 48.5254 17.8572 48.5254 15.1953V8.60938H51.4627V14.5757C51.4627 16.2279 51.761 17.5589 53.4591 17.5589C55.2719 17.5589 55.8915 16.0214 55.8915 14.1627V8.60938H58.8288V19.693H55.9374V17.926C55.2719 19.3717 53.9639 19.9454 52.5182 19.9454Z" fill="#6B7280"/>
<path d="M52.5182 19.9454C49.3286 19.9454 48.5254 17.8572 48.5254 15.1953V8.60938H51.4627V14.5757C51.4627 16.2279 51.761 17.5589 53.4591 17.5589C55.2719 17.5589 55.8915 16.0214 55.8915 14.1627V8.60938H58.8288V19.693H55.9374V17.926C55.2719 19.3717 53.9639 19.9454 52.5182 19.9454Z" fill="#3F6DFB"/>
<path d="M28.168 19.7009L29.4989 3.86719H33.4229L37.2093 15.0885L40.9956 3.86719H44.9196L46.2505 19.7009H43.2903L42.3495 6.75856L42.7625 6.80446L38.3107 19.7698H36.1078L31.656 6.80446L32.069 6.75856L31.1282 19.7009H28.168Z" fill="#6B7280"/>
<path d="M28.168 19.7009L29.4989 3.86719H33.4229L37.2093 15.0885L40.9956 3.86719H44.9196L46.2505 19.7009H43.2903L42.3495 6.75856L42.7625 6.80446L38.3107 19.7698H36.1078L31.656 6.80446L32.069 6.75856L31.1282 19.7009H28.168Z" fill="#3F6DFB"/>
</g>
<defs>
<clipPath id="clip0_14442_71594">
<rect width="136" height="22" fill="white"/>
</clipPath>
</defs>
</svg>
