<svg width="154" height="40" viewBox="0 0 154 40" fill="none" xmlns="http://www.w3.org/2000/svg">
<path fill-rule="evenodd" clip-rule="evenodd" d="M27.3088 10.0664L19.2219 10.0001C18.2045 9.99273 17.2351 10.4056 16.5348 11.1391L14.9351 12.8456C14.3085 13.5017 13.9657 14.3569 13.9583 15.2599L13.9215 20.7077C13.9067 22.6908 15.5286 24.3052 17.53 24.32L19.6089 24.3384L18.2856 27.9174C16.9329 27.2355 15.5101 27.6852 15.3701 27.7331C13.7224 28.286 13.0921 29.7641 13 29.9889C15.3406 29.9889 17.6811 29.9816 20.0254 29.9779C20.6262 28.1054 21.2233 26.233 21.8241 24.3605L23.3943 24.3753C22.9262 26.0634 22.4544 27.7516 21.9863 29.4397C21.931 29.6167 21.8757 29.7936 21.8241 29.9705L29.196 30C28.9859 29.7051 27.6995 27.9396 25.3737 27.6852C25.112 27.6557 24.8614 27.6557 24.6218 27.6631C24.8761 26.5721 25.1267 25.481 25.3811 24.39L27.2204 24.4047C29.2292 24.4232 30.8621 22.8345 30.8768 20.8515L30.9247 13.686C30.9395 11.703 29.325 10.0886 27.3162 10.0738L27.3088 10.0664Z" fill="#3F6DFB"/>
<path d="M22.5379 14.3227C21.5095 14.8461 20.8276 15.9188 20.7908 17.1093C20.7465 18.3847 21.4358 19.5715 22.5416 20.1355C22.4937 20.3087 22.1914 21.3371 21.3178 21.6762C20.2379 22.1001 19.1395 21.0791 18.9146 20.869C17.1011 19.1808 16.9426 15.2958 18.675 13.545C18.8814 13.3386 19.884 12.3176 21.034 12.653C22.0698 12.9553 22.4826 14.1458 22.5416 14.3117L22.5379 14.3227Z" fill="white"/>
<path d="M27.3191 14.0024C26.2908 14.5258 25.6089 15.5984 25.572 16.789C25.5278 18.0643 26.217 19.2512 27.3228 19.8152C27.2749 19.9884 26.9727 21.0168 26.0991 21.3559C25.0191 21.7798 23.9207 20.7588 23.6959 20.5487C21.8824 18.8605 21.7239 14.9755 23.4563 13.2247C23.6627 13.0183 24.6653 11.9973 25.8153 12.3327C26.851 12.635 27.2639 13.8255 27.3228 13.9914L27.3191 14.0024Z" fill="white"/>
<path d="M135.336 27.9998V13.4375H138.08V27.9998H135.336Z" fill="#6B7280"/>
<path d="M135.336 27.9998V13.4375H138.08V27.9998H135.336Z" fill="#3F6DFB"/>
<path d="M119.824 27.9975L125.544 13.4141H128.161L133.88 27.9975H130.968L129.786 24.7262H123.919L122.737 27.9975H119.824ZM124.742 22.4047H128.963L126.852 16.5587L124.742 22.4047Z" fill="#6B7280"/>
<path d="M119.824 27.9975L125.544 13.4141H128.161L133.88 27.9975H130.968L129.786 24.7262H123.919L122.737 27.9975H119.824ZM124.742 22.4047H128.963L126.852 16.5587L124.742 22.4047Z" fill="#3F6DFB"/>
<path d="M110.483 28.2282C107.571 28.2282 105.102 26.3499 105.102 23.0154C105.102 19.7652 107.444 17.5703 110.525 17.5703C113.522 17.5703 115.443 19.6386 115.443 22.4455C115.443 22.8676 115.401 23.6485 115.38 23.8595H107.993C108.288 25.4213 109.47 26.1389 110.905 26.1389C112.214 26.1389 113.332 25.5901 113.902 24.9992L115 26.4976C114.43 27.1308 112.699 28.2282 110.483 28.2282ZM112.763 21.9601C112.742 20.9049 112.087 19.5964 110.378 19.5964C108.816 19.5964 108.141 20.7782 107.93 21.9601H112.763Z" fill="#6B7280"/>
<path d="M110.483 28.2282C107.571 28.2282 105.102 26.3499 105.102 23.0154C105.102 19.7652 107.444 17.5703 110.525 17.5703C113.522 17.5703 115.443 19.6386 115.443 22.4455C115.443 22.8676 115.401 23.6485 115.38 23.8595H107.993C108.288 25.4213 109.47 26.1389 110.905 26.1389C112.214 26.1389 113.332 25.5901 113.902 24.9992L115 26.4976C114.43 27.1308 112.699 28.2282 110.483 28.2282ZM112.763 21.9601C112.742 20.9049 112.087 19.5964 110.378 19.5964C108.816 19.5964 108.141 20.7782 107.93 21.9601H112.763Z" fill="#3F6DFB"/>
<path d="M100.438 27.9998V13.4375H103.139V27.9998H100.438Z" fill="#6B7280"/>
<path d="M100.438 27.9998V13.4375H103.139V27.9998H100.438Z" fill="#3F6DFB"/>
<path d="M93.4672 28.232C92.0532 28.232 90.9135 27.7044 90.1115 26.5436V27.9998H87.5156V13.4375H90.217V17.9117C90.217 18.4604 90.1959 19.0303 90.1748 19.3257C91.1245 18.0383 92.3486 17.574 93.6571 17.574C96.6329 17.574 98.469 19.9167 98.469 22.9136C98.469 25.826 96.5696 28.232 93.4672 28.232ZM92.9607 26.0371C94.7124 26.0371 95.6832 24.5597 95.6832 22.8714C95.6832 21.1408 94.6279 19.7689 92.8762 19.7689C91.2512 19.7689 90.1326 20.993 90.1326 22.8714C90.1326 24.5597 91.2301 26.0371 92.9607 26.0371Z" fill="#6B7280"/>
<path d="M93.4672 28.232C92.0532 28.232 90.9135 27.7044 90.1115 26.5436V27.9998H87.5156V13.4375H90.217V17.9117C90.217 18.4604 90.1959 19.0303 90.1748 19.3257C91.1245 18.0383 92.3486 17.574 93.6571 17.574C96.6329 17.574 98.469 19.9167 98.469 22.9136C98.469 25.826 96.5696 28.232 93.4672 28.232ZM92.9607 26.0371C94.7124 26.0371 95.6832 24.5597 95.6832 22.8714C95.6832 21.1408 94.6279 19.7689 92.8762 19.7689C91.2512 19.7689 90.1326 20.993 90.1326 22.8714C90.1326 24.5597 91.2301 26.0371 92.9607 26.0371Z" fill="#3F6DFB"/>
<path d="M69.6055 27.9961V17.8025H72.2647V19.4275C72.9611 18.0135 74.0586 17.5703 75.3882 17.5703C76.8655 17.5703 77.7308 18.1612 78.2162 19.512C78.9338 18.2668 80.0946 17.5703 81.5719 17.5703C84.2522 17.5703 84.9909 19.4697 84.9909 21.8124V27.9961H82.2895V22.2556C82.2895 21.0104 82.0151 19.7441 80.6855 19.7441C79.3348 19.7441 78.6383 20.9471 78.6383 22.6988V27.9961H75.958V22.2345C75.958 20.8416 75.5992 19.7652 74.3118 19.7652C72.9189 19.7652 72.3069 21.1159 72.3069 22.7199V27.9961H69.6055Z" fill="#6B7280"/>
<path d="M69.6055 27.9961V17.8025H72.2647V19.4275C72.9611 18.0135 74.0586 17.5703 75.3882 17.5703C76.8655 17.5703 77.7308 18.1612 78.2162 19.512C78.9338 18.2668 80.0946 17.5703 81.5719 17.5703C84.2522 17.5703 84.9909 19.4697 84.9909 21.8124V27.9961H82.2895V22.2556C82.2895 21.0104 82.0151 19.7441 80.6855 19.7441C79.3348 19.7441 78.6383 20.9471 78.6383 22.6988V27.9961H75.958V22.2345C75.958 20.8416 75.5992 19.7652 74.3118 19.7652C72.9189 19.7652 72.3069 21.1159 72.3069 22.7199V27.9961H69.6055Z" fill="#3F6DFB"/>
<path d="M61.3011 28.2305C58.3676 28.2305 57.6289 26.3099 57.6289 23.8618V17.8047H60.3303V23.2919C60.3303 24.8115 60.6047 26.0356 62.1664 26.0356C63.8337 26.0356 64.4035 24.6215 64.4035 22.9121V17.8047H67.105V27.9983H64.4458V26.3732C63.8337 27.7028 62.6307 28.2305 61.3011 28.2305Z" fill="#6B7280"/>
<path d="M61.3011 28.2305C58.3676 28.2305 57.6289 26.3099 57.6289 23.8618V17.8047H60.3303V23.2919C60.3303 24.8115 60.6047 26.0356 62.1664 26.0356C63.8337 26.0356 64.4035 24.6215 64.4035 22.9121V17.8047H67.105V27.9983H64.4458V26.3732C63.8337 27.7028 62.6307 28.2305 61.3011 28.2305Z" fill="#3F6DFB"/>
<path d="M38.9062 27.9998L40.1303 13.4375H43.7393L47.2215 23.7578L50.7038 13.4375H54.3128L55.5368 27.9998H52.8143L51.949 16.0967L52.3289 16.1389L48.2346 28.0631H46.2085L42.1142 16.1389L42.4941 16.0967L41.6288 27.9998H38.9062Z" fill="#6B7280"/>
<path d="M38.9062 27.9998L40.1303 13.4375H43.7393L47.2215 23.7578L50.7038 13.4375H54.3128L55.5368 27.9998H52.8143L51.949 16.0967L52.3289 16.1389L48.2346 28.0631H46.2085L42.1142 16.1389L42.4941 16.0967L41.6288 27.9998H38.9062Z" fill="#3F6DFB"/>
</svg>
